<svg width="325" height="27" viewBox="0 0 325 27" fill="none" xmlns="http://www.w3.org/2000/svg">
<path d="M5.02556 26.3171H0V0H11.7769C14.3655 0 16.504 0.827483 18.2273 2.44255C19.9903 4.0601 20.8532 6.0889 20.8532 8.49405C20.8532 10.8992 19.9903 12.9679 18.2273 14.5854C16.5015 16.203 14.363 17.028 11.7769 17.028H5.02556V26.3146V26.3171ZM5.02556 4.66325V12.3697H11.7769C13.99 12.3697 15.6039 10.7148 15.6039 8.49654C15.6039 6.27832 13.99 4.66076 11.7769 4.66076H5.02556V4.66325Z" fill="#14081B"/>
<path d="M45.0059 0.00249482C47.5945 0.00249482 49.733 0.829963 51.4563 2.44503C53.2193 4.06258 54.0822 6.09139 54.0822 8.49654C54.0822 11.9186 52.1327 14.8122 49.094 16.1656L55.0943 26.3171H49.5067L43.9938 17.0305H37.8791V26.3171H32.8535V0H45.0059V0.00249482ZM37.8791 4.66325V12.3697H45.0059C47.219 12.3697 48.8329 10.7148 48.8329 8.49654C48.8329 6.27832 47.219 4.66076 45.0059 4.66076H37.8791V4.66325Z" fill="#14081B"/>
<path d="M82.434 0H78.3459L67.0938 26.3146H72.3804L74.4443 21.3523L80.4074 7.18055L84.3836 16.7289L86.3356 21.3523L88.3971 26.3146H93.6862L82.434 0Z" fill="#14081B"/>
<path d="M105.687 26.3171V0H110.15L123.991 17.6685V0H128.83V26.3171H124.366L110.526 8.68595V26.3171H105.687Z" fill="#14081B"/>
<path d="M156.17 0H152.082L140.83 26.3146H146.117L148.181 21.3523L154.144 7.18055L158.12 16.7289L160.072 21.3523L162.133 26.3146H167.423L156.17 0Z" fill="#14081B"/>
<path d="M181.899 26.3171H179.422V0H190.786C193.148 0 195.1 0.752703 196.637 2.293C198.211 3.7959 198.999 5.67766 198.999 7.89339C198.999 10.1091 198.211 12.0283 196.637 13.571C195.098 15.0739 193.148 15.8266 190.786 15.8266H181.896V26.3146L181.899 26.3171ZM181.899 2.33288V13.4988H190.788C192.402 13.4988 193.753 12.9729 194.839 11.9211C195.926 10.8319 196.453 9.51592 196.453 7.89836C196.453 6.28081 195.891 5.00471 194.802 3.95044C193.715 2.86126 192.402 2.33536 190.788 2.33536H181.899V2.33288Z" fill="#14081B"/>
<path d="M230.54 0H233.017V15.7892C233.017 18.8723 231.968 21.4669 229.866 23.5331C227.765 25.6018 225.139 26.6536 221.989 26.6536C218.838 26.6536 216.249 25.6018 214.151 23.5331C212.052 21.4644 211 18.8723 211 15.7892V0H213.477V15.7892C213.477 18.2318 214.302 20.2631 215.914 21.8806C217.528 23.4982 219.552 24.3232 221.991 24.3232C224.431 24.3232 226.492 23.4957 228.106 21.8806C229.72 20.2656 230.543 18.2343 230.543 15.7892V0H230.54Z" fill="#14081B"/>
<path d="M247.493 0.00249482V23.9867H262.234V26.3171H245.017V0H247.493V0.00249482Z" fill="#14081B"/>
<path d="M290.097 6.58489C289.609 4.17974 286.984 2.41262 283.684 2.41262C281.883 2.41262 280.384 2.86376 279.183 3.766C278.019 4.63086 277.42 5.7574 277.42 7.15065C277.42 8.31459 278.056 9.29409 278.845 9.93214C279.257 10.2337 279.782 10.5328 280.496 10.8344C281.958 11.3977 282.858 11.6619 284.81 12.113C286.722 12.5641 287.774 12.8258 289.423 13.6159C291.748 14.6303 293.098 16.36 293.25 19.3309C293.25 21.6239 292.35 23.4658 290.587 24.8939C288.824 26.2847 286.611 27 283.873 27C281.398 27 279.26 26.3993 277.497 25.2329C275.734 24.0664 274.647 22.5635 274.234 20.7217L276.709 20.0064C277.196 22.6757 280.123 24.5924 283.873 24.5924C285.862 24.5924 287.473 24.1038 288.786 23.1642C290.099 22.2246 290.773 20.9834 290.773 19.5179C290.773 18.314 290.174 17.2996 289.423 16.6591C289.047 16.3201 288.523 16.021 287.884 15.7568C286.645 15.1562 285.708 14.892 284.171 14.553C283.346 14.3661 282.709 14.1767 282.259 14.0645C281.809 13.9524 281.209 13.7629 280.459 13.5012C279.708 13.2371 279.108 13.0127 278.695 12.7859C277.833 12.3348 276.557 11.5447 275.958 10.6799C275.396 9.815 274.946 8.61118 274.946 7.25782C274.946 5.11437 275.771 3.38466 277.383 2.0313C278.996 0.677934 281.095 0 283.609 0C285.897 0 287.884 0.563282 289.498 1.65495C291.111 2.74412 292.161 4.17475 292.574 5.86458L290.099 6.5774L290.097 6.58489Z" fill="#14081B"/>
<path d="M323.93 0.00249482V2.33288H307.727V11.8064H322.055V14.1368H307.727V23.9867H324.116V26.3171H305.25V0H323.93V0.00249482Z" fill="#14081B"/>
</svg>
